<?xml version="1.0" encoding="UTF-8"?>
<svg version="1.1" xmlns="http://www.w3.org/2000/svg" width="1071" height="951">
<path d="M0 0 C1.69020542 -0.00131231 3.38041023 -0.00394652 5.07061183 -0.0077675 C9.65906301 -0.01440088 14.24729973 -0.00257985 18.83572364 0.01256669 C23.8047782 0.0256274 28.77382248 0.02113056 33.7428894 0.01885986 C42.33354642 0.01729342 50.92413462 0.02663649 59.51477432 0.04357338 C71.93510068 0.06804464 84.35539407 0.07577693 96.77574192 0.07953735 C116.93115105 0.08608914 137.08652357 0.10601563 157.24191284 0.13444519 C176.81092141 0.1620188 196.37992 0.18323619 215.94894409 0.19596863 C217.15693527 0.1967568 218.36492646 0.19754497 219.60952343 0.19835702 C225.67018488 0.20227238 231.7308464 0.20606345 237.79150796 0.20979273 C288.0017268 0.24084898 338.21190592 0.29364995 388.42208862 0.36076355 C388.42208862 2.01076355 388.42208862 3.66076355 388.42208862 5.36076355 C389.27992581 5.35810551 390.13776299 5.35544747 391.02159524 5.35270888 C441.91878445 5.19589719 492.81594794 5.07587434 543.71333058 5.00330624 C549.83125685 4.99455181 555.94918262 4.9854915 562.06710815 4.97624207 C563.28502339 4.97440589 564.50293862 4.97256972 565.75776038 4.9706779 C585.45106474 4.94025898 605.14422535 4.88508921 624.83744457 4.82069398 C645.0602341 4.75512099 665.28294859 4.71632835 685.50584006 4.70214409 C697.97400209 4.69256248 710.44175773 4.66235355 722.9097946 4.60534828 C731.47174296 4.56820772 740.03348271 4.55719414 748.59550568 4.56625391 C753.52776069 4.57071602 758.45930803 4.5641129 763.39143562 4.52632523 C801.0873428 4.25161568 801.0873428 4.25161568 817.42208862 12.36076355 C818.45496128 12.82180261 819.48783394 13.28284166 820.55200577 13.7578516 C822.8273095 14.78141436 824.99212814 15.899328 827.17208862 17.11076355 C827.94028931 17.52705017 828.70848999 17.94333679 829.49996948 18.37223816 C841.5019764 25.01640486 852.58993983 32.7636462 862.42208862 42.36076355 C863.26771362 43.18576355 864.11333862 44.01076355 864.98458862 44.86076355 C865.78896362 45.68576355 866.59333862 46.51076355 867.42208862 47.36076355 C868.36761597 48.23861511 868.36761597 48.23861511 869.33224487 49.13420105 C893.49410734 72.06027161 911.2280093 109.40095247 912.51635692 142.8049301 C912.55399505 145.7503131 912.56046452 148.69427618 912.5563097 151.63990116 C912.55866193 152.77428569 912.56101416 153.90867022 912.56343767 155.07743004 C912.57011658 158.89438271 912.56966978 162.71130125 912.56925964 166.52825928 C912.57201172 169.28636397 912.57624705 172.04446596 912.58040112 174.80256885 C912.58971761 181.59814848 912.59364757 188.39372159 912.59592009 195.1893068 C912.59888472 203.32950326 912.60758379 211.4696911 912.61633437 219.60988303 C912.63717123 239.2872563 912.64764816 258.96463107 912.65646398 278.64201281 C912.66067237 287.95506702 912.66589417 297.26812058 912.67114851 306.58117425 C912.68903983 338.47358928 912.70403409 370.3660045 912.7114687 402.25842381 C912.71194345 404.26043081 912.71241934 406.26243782 912.71289636 408.26444482 C912.71325092 409.75364236 912.71325092 409.75364236 912.71361265 411.2729247 C912.71481382 416.30277398 912.71602928 421.33262326 912.71725464 426.36247253 C912.71749479 427.36065508 912.71773494 428.35883762 912.71798237 429.38726812 C912.72587063 461.73144334 912.74929213 494.07558182 912.78181058 526.41974101 C912.81614353 560.63129403 912.83582314 594.84282557 912.83911294 629.05439609 C912.83953046 632.81356649 912.84001002 636.57273688 912.84053612 640.33190727 C912.84065931 641.25749244 912.8407825 642.1830776 912.84090943 643.1367108 C912.84323735 658.00468149 912.85887473 672.87260939 912.87937796 687.74056486 C912.89967984 702.70047506 912.90509272 717.66033411 912.89560733 732.62025554 C912.890409 741.49620514 912.89619048 750.37198393 912.918142 759.2479088 C912.93172568 765.19219465 912.93050691 771.13636392 912.91774004 777.08065114 C912.91089303 780.45775828 912.91226551 783.83427903 912.92730013 787.21139748 C913.101982 829.0669996 901.49151159 868.05310268 872.44161987 899.18888855 C870.67124724 901.0928096 869.00823094 903.03967506 867.35958862 905.04826355 C844.68134444 931.4653534 806.35122467 947.57977263 772.42208862 951.36076355 C762.75396454 951.99360406 753.06007108 951.88981601 743.37610306 951.83969535 C739.49501283 951.82416503 735.6139527 951.83232928 731.73284435 951.83726025 C724.94469239 951.84269414 718.15668937 951.83336258 711.36856461 951.81402588 C701.25083297 951.7852562 691.13317865 951.77985734 681.01541096 951.77879168 C662.88205347 951.77610265 644.74878346 951.75043043 626.61546391 951.71483709 C610.70964999 951.68365073 594.80384594 951.65964472 578.89801025 951.64283752 C577.83984475 951.64170794 576.78167924 951.64057836 575.69144811 951.63941454 C571.39212121 951.63483046 567.09279428 951.6302764 562.79346729 951.6257711 C532.60805831 951.59405733 502.42266647 951.55525607 472.23728943 951.50085449 C471.09295547 951.49879803 469.9486215 951.49674157 468.76961076 951.49462279 C464.12410184 951.48627021 459.47859296 951.47789682 454.83308409 951.46951809 C409.26382627 951.38739101 363.69467444 951.33964106 318.12534687 951.32113075 C312.03323598 951.31864538 305.94112512 951.31609532 299.84901428 951.31347656 C298.64446147 951.31296052 297.43990865 951.31244449 296.19885423 951.31191281 C264.05097635 951.29774569 231.90312247 951.26186502 199.75526905 951.22064495 C195.11744506 951.21475656 190.47962099 951.20892925 185.84179688 951.20314026 C184.69909928 951.20170309 183.55640169 951.20026592 182.37907689 951.19878519 C165.13509946 951.17743482 147.89114535 951.16882298 130.64715576 951.1665802 C110.98966037 951.16399905 91.33227102 951.14383792 71.6748209 951.10074055 C60.6514218 951.07709402 49.62821346 951.06716366 38.60479243 951.07716109 C31.21487838 951.08247617 23.8251379 951.06949549 16.43527334 951.0420693 C12.22883637 951.02696258 8.02278944 951.01939798 3.81634223 951.0341717 C-37.76932129 951.16696956 -75.45732271 940.25458772 -106.47244263 911.31388855 C-108.19048598 909.72015631 -109.92656473 908.24617429 -111.76541138 906.79826355 C-138.07248379 883.9988008 -155.16054395 845.53839158 -158.57791138 811.36076355 C-158.72221781 807.59620714 -158.71566758 803.8346256 -158.70933914 800.06765938 C-158.71139178 798.93177687 -158.71344441 797.79589435 -158.71555924 796.62559116 C-158.72123235 792.80359066 -158.7197716 788.98162616 -158.71835327 785.15962219 C-158.72038712 782.39795427 -158.72391105 779.63628869 -158.72735667 776.87462223 C-158.73493041 770.0703917 -158.73712942 763.26616902 -158.73768573 756.46193472 C-158.7386 748.31162677 -158.74526946 740.16132606 -158.75203255 732.01102122 C-158.76808914 712.31134472 -158.77399562 692.611669 -158.7787813 672.91198714 C-158.78111777 663.59061771 -158.7847205 654.26924889 -158.78847668 644.94787994 C-158.8013124 613.03326817 -158.81203116 581.11865674 -158.81547928 549.20404243 C-158.81570091 547.20076491 -158.81592269 545.19748739 -158.81614463 543.19420987 C-158.81636527 541.18611836 -158.81658575 539.17802685 -158.81680608 537.16993535 C-158.81724863 533.14142235 -158.81769574 529.11290936 -158.81814575 525.08439636 C-158.81825514 524.08556002 -158.81836453 523.08672368 -158.81847724 522.05761958 C-158.82210696 489.67850272 -158.83802371 457.29940827 -158.86133612 424.92029999 C-158.88594407 390.67909493 -158.89965258 356.43790268 -158.9008472 322.19668853 C-158.90101865 318.43620356 -158.90123407 314.67571858 -158.90148163 310.91523361 C-158.9015374 309.98931133 -158.90159317 309.06338905 -158.90165062 308.10940852 C-158.90280028 293.22186278 -158.91381513 278.33434005 -158.92836868 263.44680207 C-158.94275049 248.47578146 -158.94596118 233.5047903 -158.93792871 218.53376468 C-158.93348026 209.64568406 -158.93730156 200.75769864 -158.95316721 191.86963058 C-158.9629473 185.92363704 -158.96171018 179.97770988 -158.95173098 174.03171689 C-158.9463606 170.64960854 -158.94723835 167.26783005 -158.9582397 163.88571371 C-159.01161774 146.36131187 -158.09199407 130.13898218 -152.82791138 113.29826355 C-152.57114624 112.46520691 -152.3143811 111.63215027 -152.04983521 110.77384949 C-144.4582391 86.85518458 -131.65371766 64.86081553 -113.57791138 47.36076355 C-112.81478638 46.57701355 -112.05166138 45.79326355 -111.26541138 44.98576355 C-81.22464572 15.64362035 -41.91744701 -0.24701945 0 0 Z " fill="#004D86" transform="translate(158.57791137695313,-0.3607635498046875)"/>
<path d="M0 0 C418.60604761 0 418.60604761 0 439.75 11.75 C440.51820068 12.16628662 441.28640137 12.58257324 442.07788086 13.01147461 C454.07988778 19.65564131 465.16785121 27.40288265 475 37 C475.845625 37.825 476.69125 38.65 477.5625 39.5 C478.366875 40.325 479.17125 41.15 480 42 C480.63035156 42.58523437 481.26070312 43.17046875 481.91015625 43.7734375 C506.07201872 66.69950806 523.80592067 104.04018892 525.0942683 137.44416655 C525.13190643 140.38954955 525.1383759 143.33351263 525.13422108 146.27913761 C525.13657331 147.41352214 525.13892554 148.54790667 525.14134905 149.71666649 C525.14802796 153.53361916 525.14758115 157.35053771 525.14717102 161.16749573 C525.1499231 163.92560042 525.15415842 166.68370241 525.1583125 169.4418053 C525.16762899 176.23738493 525.17155895 183.03295804 525.17383147 189.82854325 C525.1767961 197.96873971 525.18549516 206.10892755 525.19424575 214.24911948 C525.21508261 233.92649275 525.22555954 253.60386752 525.23437535 273.28124926 C525.23858375 282.59430347 525.24380555 291.90735703 525.24905988 301.2204107 C525.2669512 333.11282573 525.28194546 365.00524095 525.28938007 396.89766026 C525.28985483 398.89966726 525.29033072 400.90167427 525.29080774 402.90368127 C525.2911623 404.39287881 525.2911623 404.39287881 525.29152403 405.91216115 C525.2927252 410.94201043 525.29394066 415.97185971 525.29516602 421.00170898 C525.29540617 421.99989153 525.29564632 422.99807407 525.29589374 424.02650457 C525.30378201 456.37067979 525.32720351 488.71481827 525.35972196 521.05897746 C525.39405491 555.27053048 525.41373452 589.48206202 525.41702431 623.69363254 C525.41744184 627.45280295 525.4179214 631.21197333 525.41844749 634.97114372 C525.41857069 635.89672889 525.41869388 636.82231405 525.4188208 637.77594725 C525.42114873 652.64391794 525.43678611 667.51184584 525.45728934 682.37980131 C525.47759121 697.33971151 525.4830041 712.29957057 525.47351871 727.25949199 C525.46832038 736.13544159 525.47410186 745.01122038 525.49605338 753.88714525 C525.50963706 759.8314311 525.50841828 765.77560037 525.49565142 771.71988759 C525.48880441 775.09699473 525.49017689 778.47351548 525.50521151 781.85063393 C525.67989338 823.70623605 514.06942297 862.69233913 485.01953125 893.828125 C483.24915862 895.73204605 481.58614232 897.67891151 479.9375 899.6875 C456.41368823 927.08956182 419.02985457 939.81275371 385 946 C257.95 946 130.9 946 0 946 C0 633.82 0 321.64 0 0 Z " fill="#FEFEFE" transform="translate(546,5)"/>
<path d="M0 0 C173.25 0 346.5 0 525 0 C525.12375 80.746875 525.12375 80.746875 525.25 163.125 C525.28641602 180.1008252 525.32283203 197.07665039 525.36035156 214.56689453 C525.37841797 235.35131836 525.37841797 235.35131836 525.3817749 245.0920105 C525.38549034 251.87193404 525.40010025 258.65172427 525.42230225 265.43161011 C525.44792329 273.26728838 525.45930684 281.10283974 525.4537798 288.93856012 C525.45138973 292.93932653 525.45494132 296.93981002 525.47686052 300.94052339 C525.70292479 344.37201839 515.36703168 384.30155712 485.01953125 416.828125 C483.24915862 418.73204605 481.58614232 420.67891151 479.9375 422.6875 C457.39145279 448.95059824 418.83816392 465.52521053 385 469 C373.31945584 469.66073867 361.60898574 469.51880501 349.91437617 469.46429092 C345.13905146 469.44662127 340.36374076 469.45268255 335.58839226 469.45556259 C326.35006005 469.45767542 317.1118854 469.43934187 307.8735935 469.41355728 C297.170841 469.38458839 286.46818112 469.38156909 275.76538086 469.37841797 C247.55189587 469.3574757 219.33844552 469.30163072 191.125 469.25 C96.518125 469.12625 96.518125 469.12625 0 469 C0 314.23 0 159.46 0 0 Z " fill="#FEBF00" transform="translate(546,482)"/>
<path d="M0 0 C2.4477393 2.19988345 3.71013754 4.17467192 4.97265625 7.203125 C5.48602539 8.42708984 5.48602539 8.42708984 6.00976562 9.67578125 C6.35716797 10.52527344 6.70457031 11.37476563 7.0625 12.25 C7.41376953 13.08402344 7.76503906 13.91804688 8.12695312 14.77734375 C10.0729599 19.46394608 11.6468212 24.10093281 13 29 C14.33792603 28.99214478 14.33792603 28.99214478 15.70288086 28.98413086 C19.0520087 28.9669603 22.40108889 28.95448774 25.75024414 28.94506836 C27.192309 28.94007852 28.63436891 28.93328427 30.07641602 28.92456055 C37.78215673 28.8791541 45.35149621 28.91468158 53 30 C48.17909291 34.32003363 42.54823614 37.10074572 36.875 40.125 C34.89259201 41.1889178 32.91079349 42.25397223 30.9296875 43.3203125 C30.05554199 43.78711426 29.18139648 44.25391602 28.28076172 44.73486328 C25.83619122 46.05036762 25.83619122 46.05036762 23 48 C23.63252142 51.78825326 24.73462844 55.03782248 26.25 58.5625 C26.69085938 59.60277344 27.13171875 60.64304687 27.5859375 61.71484375 C28.54325478 63.93888748 29.50699082 66.16017742 30.4765625 68.37890625 C31.16878906 69.98572266 31.16878906 69.98572266 31.875 71.625 C32.30554688 72.60726562 32.73609375 73.58953125 33.1796875 74.6015625 C33.58574219 75.78878906 33.58574219 75.78878906 34 77 C33.67 77.66 33.34 78.32 33 79 C30.8317496 77.81582645 28.66452362 76.6298729 26.49902344 75.44067383 C24.6576703 74.4338167 22.81189208 73.43501259 20.96191406 72.4440918 C13.05417091 68.1722126 13.05417091 68.1722126 9.5625 65.4296875 C6.61823285 63.21330862 4.60606422 61.80030146 1 61 C-4.90226287 62.26586 -9.98932757 65.78578436 -15 69 C-16.8321774 70.08528714 -18.66531947 71.16894978 -20.5 72.25 C-21.26054687 72.72179687 -22.02109375 73.19359375 -22.8046875 73.6796875 C-26.10656871 75.66551641 -29.52972661 77.32912763 -33 79 C-31.00972433 72.47631864 -28.43442171 66.51669718 -25.40234375 60.40625 C-23.7279537 56.33920788 -22.82717152 52.30685071 -22 48 C-22.69561035 47.62713867 -23.3912207 47.25427734 -24.10791016 46.87011719 C-27.28194809 45.16651062 -30.45348633 43.45830091 -33.625 41.75 C-34.71941406 41.16347656 -35.81382813 40.57695312 -36.94140625 39.97265625 C-47.69435329 34.17258179 -47.69435329 34.17258179 -52 31 C-52 30.67 -52 30.34 -52 30 C-43.64571234 28.81453125 -35.35239405 28.88659378 -26.9375 28.9375 C-25.48502759 28.94252586 -24.03255349 28.94708684 -22.58007812 28.95117188 C-19.05334985 28.96208958 -15.52668598 28.97929414 -12 29 C-11.81171631 28.42064697 -11.62343262 27.84129395 -11.42944336 27.24438477 C-8.33540997 17.82619768 -4.56921497 8.79996957 0 0 Z " fill="#F9BE05" transform="translate(163,353)"/>
<path d="M0 0 C0.66 0 1.32 0 2 0 C3.13501477 2.97544441 4.25609196 5.95596528 5.375 8.9375 C5.69210937 9.76830078 6.00921875 10.59910156 6.3359375 11.45507812 C6.6453125 12.28330078 6.9546875 13.11152344 7.2734375 13.96484375 C7.55622559 14.7137085 7.83901367 15.46257324 8.13037109 16.23413086 C9.34119762 20.08518467 10.12426928 24.05921175 11 28 C22.22 28 33.44 28 45 28 C45 28.66 45 29.32 45 30 C42.54982043 31.67153355 40.10249336 33.22611657 37.5625 34.75 C36.09442371 35.64741035 34.62697226 36.5458437 33.16015625 37.4453125 C32.44617676 37.88133789 31.73219727 38.31736328 30.99658203 38.76660156 C27.26193245 41.07369984 23.62386816 43.52369009 20 46 C21.10442596 54.39363727 23.91441862 62.16551739 27.328125 69.87109375 C28 72 28 72 27 75 C25.25503552 73.91662328 23.51032977 72.83282787 21.7668457 71.74707031 C20.29399578 70.83031136 18.8198662 69.91560518 17.34448242 69.00292969 C12.70399765 66.11798447 8.2193625 63.11274491 3.89453125 59.765625 C1.9493977 58.7434671 1.9493977 58.7434671 -0.30517578 59.74853516 C-3.08784238 61.04079362 -5.48166265 62.52456529 -8.01171875 64.2578125 C-9.39520508 65.19560547 -9.39520508 65.19560547 -10.80664062 66.15234375 C-11.75732422 66.80332031 -12.70800781 67.45429687 -13.6875 68.125 C-15.58437587 69.42346426 -17.48397951 70.71795558 -19.38671875 72.0078125 C-20.64295044 72.86850342 -20.64295044 72.86850342 -21.92456055 73.74658203 C-24 75 -24 75 -26 75 C-25.37715185 70.0172148 -23.82463317 65.6409148 -22 61 C-21.26224798 59.08662155 -20.53338276 57.1697977 -19.8125 55.25 C-19.46832031 54.34765625 -19.12414062 53.4453125 -18.76953125 52.515625 C-17.80498646 49.80094269 -17.80498646 49.80094269 -18 46 C-20.11874211 44.05704823 -20.11874211 44.05704823 -22.9609375 42.36328125 C-23.98960937 41.70392578 -25.01828125 41.04457031 -26.078125 40.36523438 C-27.16609375 39.68783203 -28.2540625 39.01042969 -29.375 38.3125 C-30.99535156 37.27899414 -30.99535156 37.27899414 -32.6484375 36.22460938 C-37.72111913 32.93328721 -37.72111913 32.93328721 -43 30 C-43 29.34 -43 28.68 -43 28 C-31.78 28 -20.56 28 -9 28 C-8.67 26.02 -8.34 24.04 -8 22 C-7.43028448 20.18537487 -6.81326236 18.38499366 -6.15234375 16.6015625 C-5.79462891 15.62832031 -5.43691406 14.65507812 -5.06835938 13.65234375 C-4.69517578 12.65332031 -4.32199219 11.65429688 -3.9375 10.625 C-3.56044922 9.60277344 -3.18339844 8.58054687 -2.79492188 7.52734375 C-1.86799899 5.01643873 -0.93623553 2.50744426 0 0 Z " fill="#F6F8FA" transform="translate(328,481)"/>
<path d="M0 0 C0.66 0 1.32 0 2 0 C3.13501477 2.97544441 4.25609196 5.95596528 5.375 8.9375 C5.69210938 9.76830078 6.00921875 10.59910156 6.3359375 11.45507812 C6.6453125 12.28330078 6.9546875 13.11152344 7.2734375 13.96484375 C7.55622559 14.7137085 7.83901367 15.46257324 8.13037109 16.23413086 C9.34119762 20.08518467 10.12426928 24.05921175 11 28 C22.22 28 33.44 28 45 28 C45 28.66 45 29.32 45 30 C42.54982043 31.67153355 40.10249336 33.22611657 37.5625 34.75 C36.09442371 35.64741035 34.62697226 36.5458437 33.16015625 37.4453125 C32.44617676 37.88133789 31.73219727 38.31736328 30.99658203 38.76660156 C27.26193245 41.07369984 23.62386816 43.52369009 20 46 C21.10442596 54.39363727 23.91441862 62.16551739 27.328125 69.87109375 C28 72 28 72 27 75 C25.25503552 73.91662328 23.51032977 72.83282787 21.7668457 71.74707031 C20.29399578 70.83031136 18.8198662 69.91560518 17.34448242 69.00292969 C12.70399765 66.11798447 8.2193625 63.11274491 3.89453125 59.765625 C1.9493977 58.7434671 1.9493977 58.7434671 -0.30517578 59.74853516 C-3.08784238 61.04079362 -5.48166265 62.52456529 -8.01171875 64.2578125 C-9.39520508 65.19560547 -9.39520508 65.19560547 -10.80664062 66.15234375 C-11.75732422 66.80332031 -12.70800781 67.45429687 -13.6875 68.125 C-15.58437587 69.42346426 -17.48397951 70.71795558 -19.38671875 72.0078125 C-20.64295044 72.86850342 -20.64295044 72.86850342 -21.92456055 73.74658203 C-24 75 -24 75 -26 75 C-25.37715185 70.0172148 -23.82463317 65.6409148 -22 61 C-21.26224798 59.08662155 -20.53338276 57.1697977 -19.8125 55.25 C-19.46832031 54.34765625 -19.12414062 53.4453125 -18.76953125 52.515625 C-17.80498646 49.80094269 -17.80498646 49.80094269 -18 46 C-20.11874211 44.05704823 -20.11874211 44.05704823 -22.9609375 42.36328125 C-23.98960937 41.70392578 -25.01828125 41.04457031 -26.078125 40.36523438 C-27.16609375 39.68783203 -28.2540625 39.01042969 -29.375 38.3125 C-30.99535156 37.27899414 -30.99535156 37.27899414 -32.6484375 36.22460938 C-37.72111913 32.93328721 -37.72111913 32.93328721 -43 30 C-43 29.34 -43 28.68 -43 28 C-31.78 28 -20.56 28 -9 28 C-8.67 26.02 -8.34 24.04 -8 22 C-7.43028448 20.18537487 -6.81326236 18.38499366 -6.15234375 16.6015625 C-5.79462891 15.62832031 -5.43691406 14.65507812 -5.06835938 13.65234375 C-4.69517578 12.65332031 -4.32199219 11.65429688 -3.9375 10.625 C-3.56044922 9.60277344 -3.18339844 8.58054687 -2.79492188 7.52734375 C-1.86799899 5.01643873 -0.93623553 2.50744426 0 0 Z " fill="#F6F8FA" transform="translate(218,481)"/>
<path d="M0 0 C3.23978481 3.66530878 4.52396097 7.75984103 6.0625 12.3125 C6.31837891 13.04662109 6.57425781 13.78074219 6.83789062 14.53710938 C8.37887167 19.00159688 9.69850904 23.44478163 11 28 C21.89 28 32.78 28 44 28 C44 28.66 44 29.32 44 30 C41.52827131 31.66781693 39.05743933 33.22410442 36.5 34.75 C31.90004913 37.54640578 27.38239325 40.31721119 23.125 43.625 C20 46 20 46 18 46 C19.12314109 49.22981622 20.24884234 52.45873447 21.375 55.6875 C21.69210937 56.59951172 22.00921875 57.51152344 22.3359375 58.45117188 C22.6453125 59.33740234 22.9546875 60.22363281 23.2734375 61.13671875 C23.69761963 62.35427856 23.69761963 62.35427856 24.13037109 63.59643555 C24.98182339 66.053018 24.98182339 66.053018 26.17041016 68.55395508 C27.07851277 71.23149482 26.96600749 72.39177977 26 75 C23.31065452 73.27369115 20.62387674 71.5434243 17.9375 69.8125 C17.18533203 69.32974609 16.43316406 68.84699219 15.65820312 68.34960938 C14.91376953 67.86943359 14.16933594 67.38925781 13.40234375 66.89453125 C12.65968262 66.41838379 11.91702148 65.94223633 11.15185547 65.45166016 C9.09401683 64.06342456 7.19206607 62.56003997 5.25390625 61.01171875 C4.18011719 60.34785156 3.10632813 59.68398438 2 59 C-1.65301865 60.04234282 -4.61374304 61.91031009 -7.7578125 64.00390625 C-8.63050781 64.57947266 -9.50320313 65.15503906 -10.40234375 65.74804688 C-11.75005859 66.64620117 -11.75005859 66.64620117 -13.125 67.5625 C-14.91724425 68.75435517 -16.7114317 69.94329492 -18.5078125 71.12890625 C-19.29816895 71.65556885 -20.08852539 72.18223145 -20.90283203 72.72485352 C-23 74 -23 74 -26 75 C-24.7004979 68.14807982 -22.5878037 61.85380742 -20.12109375 55.33203125 C-19.06628026 52.19699326 -18.50197899 49.25958532 -18 46 C-21.79053909 43.51910596 -25.58261946 41.04057804 -29.375 38.5625 C-30.45523438 37.85544922 -31.53546875 37.14839844 -32.6484375 36.41992188 C-33.6796875 35.74638672 -34.7109375 35.07285156 -35.7734375 34.37890625 C-36.72653809 33.7557251 -37.67963867 33.13254395 -38.66162109 32.49047852 C-40.90089194 31.00637435 -40.90089194 31.00637435 -43 30 C-43 29.34 -43 28.68 -43 28 C-32.11 27.67 -21.22 27.34 -10 27 C-7.82859833 20.73425199 -7.82859833 20.73425199 -5.6628418 14.46655273 C-3.95122383 9.55194197 -2.119178 4.75347928 0 0 Z " fill="#F6F9FA" transform="translate(269,385)"/>
<path d="M0 0 C3.23978481 3.66530878 4.52396097 7.75984103 6.0625 12.3125 C6.31837891 13.04662109 6.57425781 13.78074219 6.83789062 14.53710938 C8.37887167 19.00159688 9.69850904 23.44478163 11 28 C21.89 28 32.78 28 44 28 C44 28.66 44 29.32 44 30 C41.52827131 31.66781693 39.05743933 33.22410442 36.5 34.75 C31.90004913 37.54640578 27.38239325 40.31721119 23.125 43.625 C20 46 20 46 18 46 C19.12314109 49.22981622 20.24884234 52.45873447 21.375 55.6875 C21.69210937 56.59951172 22.00921875 57.51152344 22.3359375 58.45117188 C22.6453125 59.33740234 22.9546875 60.22363281 23.2734375 61.13671875 C23.69761963 62.35427856 23.69761963 62.35427856 24.13037109 63.59643555 C24.98182339 66.053018 24.98182339 66.053018 26.17041016 68.55395508 C27.07851277 71.23149482 26.96600749 72.39177977 26 75 C23.31065452 73.27369115 20.62387674 71.5434243 17.9375 69.8125 C17.18533203 69.32974609 16.43316406 68.84699219 15.65820312 68.34960938 C14.91376953 67.86943359 14.16933594 67.38925781 13.40234375 66.89453125 C12.65968262 66.41838379 11.91702148 65.94223633 11.15185547 65.45166016 C9.09401683 64.06342456 7.19206607 62.56003997 5.25390625 61.01171875 C4.18011719 60.34785156 3.10632813 59.68398438 2 59 C-1.65301865 60.04234282 -4.61374304 61.91031009 -7.7578125 64.00390625 C-8.63050781 64.57947266 -9.50320313 65.15503906 -10.40234375 65.74804688 C-11.75005859 66.64620117 -11.75005859 66.64620117 -13.125 67.5625 C-14.91724425 68.75435517 -16.7114317 69.94329492 -18.5078125 71.12890625 C-19.29816895 71.65556885 -20.08852539 72.18223145 -20.90283203 72.72485352 C-23 74 -23 74 -26 75 C-24.7004979 68.14807982 -22.5878037 61.85380742 -20.12109375 55.33203125 C-19.06628026 52.19699326 -18.50197899 49.25958532 -18 46 C-21.79053909 43.51910596 -25.58261946 41.04057804 -29.375 38.5625 C-30.45523438 37.85544922 -31.53546875 37.14839844 -32.6484375 36.41992188 C-33.6796875 35.74638672 -34.7109375 35.07285156 -35.7734375 34.37890625 C-36.72653809 33.7557251 -37.67963867 33.13254395 -38.66162109 32.49047852 C-40.90089194 31.00637435 -40.90089194 31.00637435 -43 30 C-43 29.34 -43 28.68 -43 28 C-32.11 27.67 -21.22 27.34 -10 27 C-7.82859833 20.73425199 -7.82859833 20.73425199 -5.6628418 14.46655273 C-3.95122383 9.55194197 -2.119178 4.75347928 0 0 Z " fill="#F6F9FA" transform="translate(269,296)"/>
<path d="M0 0 C0.66 0 1.32 0 2 0 C6.95 13.365 6.95 13.365 12 27 C28.335 27.495 28.335 27.495 45 28 C42.20734333 30.79265667 40.44191087 32.53418042 37.25 34.47265625 C36.5590625 34.89740234 35.868125 35.32214844 35.15625 35.75976562 C34.4446875 36.18966797 33.733125 36.61957031 33 37.0625 C31.58231754 37.92672128 30.16562003 38.79256076 28.75 39.66015625 C28.09257812 40.06250488 27.43515625 40.46485352 26.7578125 40.87939453 C24.85687623 42.05696231 24.85687623 42.05696231 22.625 43.80859375 C21 45 21 45 19 45 C20.45550111 49.4473645 21.94827256 53.87511451 23.53515625 58.27734375 C23.80634277 59.03281494 24.0775293 59.78828613 24.35693359 60.56665039 C24.90670575 62.09460329 25.46036363 63.62116414 26.01806641 65.14624023 C27.12130217 68.21924194 28 70.7087442 28 74 C24.41439486 72.6888311 21.47343239 71.11001541 18.34765625 68.92578125 C17.48849609 68.34119141 16.62933594 67.75660156 15.74414062 67.15429688 C13.95353881 65.92448077 12.1696532 64.68482935 10.39257812 63.43554688 C5.51069302 60.04281836 5.51069302 60.04281836 -0.16015625 58.8046875 C-3.94248308 60.39669852 -7.15520837 62.45087439 -10.5 64.8125 C-11.13808594 65.25142578 -11.77617187 65.69035156 -12.43359375 66.14257812 C-14.8750454 67.82263637 -17.30792891 69.51465397 -19.734375 71.21630859 C-23.77802721 74 -23.77802721 74 -26 74 C-25.21301926 70.65620627 -24.20334344 67.41040182 -23.15234375 64.140625 C-22.79462891 63.02558594 -22.43691406 61.91054688 -22.06835938 60.76171875 C-21.69517578 59.60285156 -21.32199219 58.44398438 -20.9375 57.25 C-20.56044922 56.07566406 -20.18339844 54.90132812 -19.79492188 53.69140625 C-18.86442253 50.79390196 -17.93273907 47.89678392 -17 45 C-17.751604 44.71624512 -18.50320801 44.43249023 -19.27758789 44.14013672 C-21.60395413 43.16586263 -23.48505929 42.16583747 -25.55859375 40.7578125 C-26.50895508 40.11779297 -26.50895508 40.11779297 -27.47851562 39.46484375 C-28.12498047 39.02269531 -28.77144531 38.58054687 -29.4375 38.125 C-30.08009766 37.69058594 -30.72269531 37.25617187 -31.38476562 36.80859375 C-32.65136944 35.95218955 -33.91623208 35.09320362 -35.17919922 34.23144531 C-36.93053066 33.04698356 -38.69989118 31.89419861 -40.47265625 30.7421875 C-41.30667969 30.16726563 -42.14070313 29.59234375 -43 29 C-43 28.67 -43 28.34 -43 28 C-31.78 28 -20.56 28 -9 28 C-8.34 25.03 -7.68 22.06 -7 19 C-6.31050666 17.05688239 -5.62031304 15.11312636 -4.86328125 13.1953125 C-3.79595157 10.48110761 -2.80496005 7.74241612 -1.8125 5 C-1.46832031 4.05125 -1.12414062 3.1025 -0.76953125 2.125 C-0.38861328 1.073125 -0.38861328 1.073125 0 0 Z " fill="#F8FAFB" transform="translate(154,546)"/>
<path d="M0 0 C0.66 0 1.32 0 2 0 C6.95 13.365 6.95 13.365 12 27 C28.335 27.495 28.335 27.495 45 28 C42.20734333 30.79265667 40.44191087 32.53418042 37.25 34.47265625 C36.5590625 34.89740234 35.868125 35.32214844 35.15625 35.75976562 C34.4446875 36.18966797 33.733125 36.61957031 33 37.0625 C31.58231754 37.92672128 30.16562003 38.79256076 28.75 39.66015625 C28.09257812 40.06250488 27.43515625 40.46485352 26.7578125 40.87939453 C24.85687623 42.05696231 24.85687623 42.05696231 22.625 43.80859375 C21 45 21 45 19 45 C20.45550111 49.4473645 21.94827256 53.87511451 23.53515625 58.27734375 C23.80634277 59.03281494 24.0775293 59.78828613 24.35693359 60.56665039 C24.90670575 62.09460329 25.46036363 63.62116414 26.01806641 65.14624023 C27.12130217 68.21924194 28 70.7087442 28 74 C24.41439486 72.6888311 21.47343239 71.11001541 18.34765625 68.92578125 C17.48849609 68.34119141 16.62933594 67.75660156 15.74414062 67.15429688 C13.95353881 65.92448077 12.1696532 64.68482935 10.39257812 63.43554688 C5.51069302 60.04281836 5.51069302 60.04281836 -0.16015625 58.8046875 C-3.94248308 60.39669852 -7.15520837 62.45087439 -10.5 64.8125 C-11.13808594 65.25142578 -11.77617187 65.69035156 -12.43359375 66.14257812 C-14.8750454 67.82263637 -17.30792891 69.51465397 -19.734375 71.21630859 C-23.77802721 74 -23.77802721 74 -26 74 C-25.21301926 70.65620627 -24.20334344 67.41040182 -23.15234375 64.140625 C-22.79462891 63.02558594 -22.43691406 61.91054688 -22.06835938 60.76171875 C-21.69517578 59.60285156 -21.32199219 58.44398438 -20.9375 57.25 C-20.56044922 56.07566406 -20.18339844 54.90132813 -19.79492188 53.69140625 C-18.86442253 50.79390196 -17.93273907 47.89678392 -17 45 C-17.751604 44.71624512 -18.50320801 44.43249023 -19.27758789 44.14013672 C-21.60395413 43.16586263 -23.48505929 42.16583747 -25.55859375 40.7578125 C-26.50895508 40.11779297 -26.50895508 40.11779297 -27.47851562 39.46484375 C-28.12498047 39.02269531 -28.77144531 38.58054687 -29.4375 38.125 C-30.08009766 37.69058594 -30.72269531 37.25617188 -31.38476562 36.80859375 C-32.65136944 35.95218955 -33.91623208 35.09320362 -35.17919922 34.23144531 C-36.93053066 33.04698356 -38.69989118 31.89419861 -40.47265625 30.7421875 C-41.30667969 30.16726563 -42.14070313 29.59234375 -43 29 C-43 28.67 -43 28.34 -43 28 C-31.78 28 -20.56 28 -9 28 C-8.34 25.03 -7.68 22.06 -7 19 C-6.31050666 17.05688239 -5.62031304 15.11312636 -4.86328125 13.1953125 C-3.79595157 10.48110761 -2.80496005 7.74241612 -1.8125 5 C-1.46832031 4.05125 -1.12414062 3.1025 -0.76953125 2.125 C-0.38861328 1.073125 -0.38861328 1.073125 0 0 Z " fill="#F8FAFB" transform="translate(441,438)"/>
<path d="M0 0 C2.92324503 3.37362872 4.19351558 6.99410647 5.5 11.1875 C5.9021875 12.43917969 6.304375 13.69085937 6.71875 14.98046875 C7.35296875 16.97013672 7.35296875 16.97013672 8 19 C8.99 21.97 9.98 24.94 11 28 C21.89 28 32.78 28 44 28 C41.18385062 30.81614938 39.24949554 32.65741587 36.03125 34.69140625 C34.92716797 35.39620117 34.92716797 35.39620117 33.80078125 36.11523438 C32.66189453 36.83163086 32.66189453 36.83163086 31.5 37.5625 C29.98874993 38.52082242 28.47830676 39.48041872 26.96875 40.44140625 C26.30294922 40.86107666 25.63714844 41.28074707 24.95117188 41.71313477 C22.90227904 43.06445035 20.94907419 44.50913207 19 46 C19.9888822 51.39390291 21.36856574 56.09036474 23.5625 61.125 C25.47457147 65.52276438 26.67450023 69.22600332 27 74 C22.01299707 71.45153157 17.11300596 68.87461162 12.5859375 65.5625 C12.01963623 65.1492749 11.45333496 64.7360498 10.86987305 64.31030273 C9.24965925 63.10860302 7.64592798 61.88477727 6.04296875 60.66015625 C3.16059803 58.79080006 3.16059803 58.79080006 0.15234375 58.91015625 C-4.23642211 60.42746192 -7.79537683 62.78202598 -11.625 65.375 C-12.37523437 65.87 -13.12546875 66.365 -13.8984375 66.875 C-16.70359658 68.73515868 -19.47206696 70.58473485 -22.11865234 72.66650391 C-24 74 -24 74 -26 74 C-25.16743278 69.42088031 -24.0841984 65.11924304 -22.4609375 60.7578125 C-22.1820166 60.00685303 -21.9030957 59.25589355 -21.61572266 58.48217773 C-21.0427918 56.96357166 -20.45667911 55.44986771 -19.85693359 53.94165039 C-18.2388419 50.01356829 -18.2388419 50.01356829 -18.67138672 45.94262695 C-20.26621723 43.61075146 -21.79258827 42.57693237 -24.2109375 41.125 C-25.04367188 40.61453125 -25.87640625 40.1040625 -26.734375 39.578125 C-27.60578125 39.05734375 -28.4771875 38.5365625 -29.375 38 C-31.09418509 36.96335705 -32.81043815 35.92183294 -34.5234375 34.875 C-35.28575684 34.41867187 -36.04807617 33.96234375 -36.83349609 33.4921875 C-39 32 -39 32 -43 28 C-32.11 27.67 -21.22 27.34 -10 27 C-8.68 23.04 -7.36 19.08 -6 15 C-4.15909671 9.91910691 -2.16486262 4.94825742 0 0 Z " fill="#F8FAFB" transform="translate(272,593)"/>
<path d="M0 0 C2.92324503 3.37362872 4.19351558 6.99410647 5.5 11.1875 C5.9021875 12.43917969 6.304375 13.69085937 6.71875 14.98046875 C7.35296875 16.97013672 7.35296875 16.97013672 8 19 C8.99 21.97 9.98 24.94 11 28 C21.89 28 32.78 28 44 28 C41.18385062 30.81614938 39.24949554 32.65741587 36.03125 34.69140625 C34.92716797 35.39620117 34.92716797 35.39620117 33.80078125 36.11523438 C32.66189453 36.83163086 32.66189453 36.83163086 31.5 37.5625 C29.98874993 38.52082242 28.47830676 39.48041872 26.96875 40.44140625 C26.30294922 40.86107666 25.63714844 41.28074707 24.95117188 41.71313477 C22.90227904 43.06445035 20.94907419 44.50913207 19 46 C19.9888822 51.39390291 21.36856574 56.09036474 23.5625 61.125 C25.47457147 65.52276438 26.67450023 69.22600332 27 74 C22.01299707 71.45153157 17.11300596 68.87461162 12.5859375 65.5625 C12.01963623 65.1492749 11.45333496 64.7360498 10.86987305 64.31030273 C9.24965925 63.10860302 7.64592798 61.88477727 6.04296875 60.66015625 C3.16059803 58.79080006 3.16059803 58.79080006 0.15234375 58.91015625 C-4.23642211 60.42746192 -7.79537683 62.78202598 -11.625 65.375 C-12.37523437 65.87 -13.12546875 66.365 -13.8984375 66.875 C-16.70359658 68.73515868 -19.47206696 70.58473485 -22.11865234 72.66650391 C-24 74 -24 74 -26 74 C-25.16743278 69.42088031 -24.0841984 65.11924304 -22.4609375 60.7578125 C-22.1820166 60.00685303 -21.9030957 59.25589355 -21.61572266 58.48217773 C-21.0427918 56.96357166 -20.45667911 55.44986771 -19.85693359 53.94165039 C-18.2388419 50.01356829 -18.2388419 50.01356829 -18.67138672 45.94262695 C-20.26621723 43.61075146 -21.79258827 42.57693237 -24.2109375 41.125 C-25.04367187 40.61453125 -25.87640625 40.1040625 -26.734375 39.578125 C-27.60578125 39.05734375 -28.4771875 38.5365625 -29.375 38 C-31.09418509 36.96335705 -32.81043815 35.92183294 -34.5234375 34.875 C-35.28575684 34.41867187 -36.04807617 33.96234375 -36.83349609 33.4921875 C-39 32 -39 32 -43 28 C-32.11 27.67 -21.22 27.34 -10 27 C-8.68 23.04 -7.36 19.08 -6 15 C-4.15909671 9.91910691 -2.16486262 4.94825742 0 0 Z " fill="#F8FAFB" transform="translate(397,546)"/>
<path d="M0 0 C2.92324503 3.37362872 4.19351558 6.99410647 5.5 11.1875 C5.9021875 12.43917969 6.304375 13.69085938 6.71875 14.98046875 C7.35296875 16.97013672 7.35296875 16.97013672 8 19 C8.99 21.97 9.98 24.94 11 28 C21.89 28 32.78 28 44 28 C41.18385062 30.81614938 39.24949554 32.65741587 36.03125 34.69140625 C34.92716797 35.39620117 34.92716797 35.39620117 33.80078125 36.11523438 C32.66189453 36.83163086 32.66189453 36.83163086 31.5 37.5625 C29.98874993 38.52082242 28.47830676 39.48041872 26.96875 40.44140625 C26.30294922 40.86107666 25.63714844 41.28074707 24.95117188 41.71313477 C22.90227904 43.06445035 20.94907419 44.50913207 19 46 C19.9888822 51.39390291 21.36856574 56.09036474 23.5625 61.125 C25.47457147 65.52276438 26.67450023 69.22600332 27 74 C22.01299707 71.45153157 17.11300596 68.87461162 12.5859375 65.5625 C12.01963623 65.1492749 11.45333496 64.7360498 10.86987305 64.31030273 C9.24965925 63.10860302 7.64592798 61.88477727 6.04296875 60.66015625 C3.16059803 58.79080006 3.16059803 58.79080006 0.15234375 58.91015625 C-4.23642211 60.42746192 -7.79537683 62.78202598 -11.625 65.375 C-12.37523438 65.87 -13.12546875 66.365 -13.8984375 66.875 C-16.70359658 68.73515868 -19.47206696 70.58473485 -22.11865234 72.66650391 C-24 74 -24 74 -26 74 C-25.16743278 69.42088031 -24.0841984 65.11924304 -22.4609375 60.7578125 C-22.1820166 60.00685303 -21.9030957 59.25589355 -21.61572266 58.48217773 C-21.0427918 56.96357166 -20.45667911 55.44986771 -19.85693359 53.94165039 C-18.2388419 50.01356829 -18.2388419 50.01356829 -18.67138672 45.94262695 C-20.26621723 43.61075146 -21.79258827 42.57693237 -24.2109375 41.125 C-25.04367188 40.61453125 -25.87640625 40.1040625 -26.734375 39.578125 C-27.60578125 39.05734375 -28.4771875 38.5365625 -29.375 38 C-31.09418509 36.96335705 -32.81043815 35.92183294 -34.5234375 34.875 C-35.28575684 34.41867187 -36.04807617 33.96234375 -36.83349609 33.4921875 C-39 32 -39 32 -43 28 C-32.11 27.67 -21.22 27.34 -10 27 C-8.68 23.04 -7.36 19.08 -6 15 C-4.15909671 9.91910691 -2.16486262 4.94825742 0 0 Z " fill="#F8FAFB" transform="translate(105,438)"/>
<path d="M0 0 C2.92324503 3.37362872 4.19351558 6.99410647 5.5 11.1875 C5.9021875 12.43917969 6.304375 13.69085938 6.71875 14.98046875 C7.35296875 16.97013672 7.35296875 16.97013672 8 19 C8.99 21.97 9.98 24.94 11 28 C21.89 28 32.78 28 44 28 C41.18385062 30.81614938 39.24949554 32.65741587 36.03125 34.69140625 C34.92716797 35.39620117 34.92716797 35.39620117 33.80078125 36.11523438 C32.66189453 36.83163086 32.66189453 36.83163086 31.5 37.5625 C29.98874993 38.52082242 28.47830676 39.48041872 26.96875 40.44140625 C26.30294922 40.86107666 25.63714844 41.28074707 24.95117188 41.71313477 C22.90227904 43.06445035 20.94907419 44.50913207 19 46 C19.9888822 51.39390291 21.36856574 56.09036474 23.5625 61.125 C25.47457147 65.52276438 26.67450023 69.22600332 27 74 C22.01299707 71.45153157 17.11300596 68.87461162 12.5859375 65.5625 C12.01963623 65.1492749 11.45333496 64.7360498 10.86987305 64.31030273 C9.24965925 63.10860302 7.64592798 61.88477727 6.04296875 60.66015625 C3.16059803 58.79080006 3.16059803 58.79080006 0.15234375 58.91015625 C-4.23642211 60.42746192 -7.79537683 62.78202598 -11.625 65.375 C-12.37523437 65.87 -13.12546875 66.365 -13.8984375 66.875 C-16.70359658 68.73515868 -19.47206696 70.58473485 -22.11865234 72.66650391 C-24 74 -24 74 -26 74 C-25.16743278 69.42088031 -24.0841984 65.11924304 -22.4609375 60.7578125 C-22.1820166 60.00685303 -21.9030957 59.25589355 -21.61572266 58.48217773 C-21.0427918 56.96357166 -20.45667911 55.44986771 -19.85693359 53.94165039 C-18.2388419 50.01356829 -18.2388419 50.01356829 -18.67138672 45.94262695 C-20.26621723 43.61075146 -21.79258827 42.57693237 -24.2109375 41.125 C-25.04367187 40.61453125 -25.87640625 40.1040625 -26.734375 39.578125 C-27.60578125 39.05734375 -28.4771875 38.5365625 -29.375 38 C-31.09418509 36.96335705 -32.81043815 35.92183294 -34.5234375 34.875 C-35.28575684 34.41867187 -36.04807617 33.96234375 -36.83349609 33.4921875 C-39 32 -39 32 -43 28 C-32.11 27.67 -21.22 27.34 -10 27 C-8.68 23.04 -7.36 19.08 -6 15 C-4.15909671 9.91910691 -2.16486262 4.94825742 0 0 Z " fill="#F8FAFB" transform="translate(389,360)"/>
</svg>
